<?xml version="1.0" standalone="no"?><!DOCTYPE svg PUBLIC "-//W3C//DTD SVG 1.1//EN" "http://www.w3.org/Graphics/SVG/1.1/DTD/svg11.dtd"><svg t="1580717049380" class="icon" viewBox="0 0 1024 1024" version="1.1" xmlns="http://www.w3.org/2000/svg" p-id="6096" xmlns:xlink="http://www.w3.org/1999/xlink" width="200" height="200"><defs><style type="text/css"></style></defs><path d="M349.75939941 90.125H219.90100097C148.5447998 90.125 90.125 148.5447998 90.125 219.90100097V349.67700195c0 71.35620117 58.41979981 129.77600098 129.77600098 129.77600098H349.67700195c71.35620117 0 129.77600098-58.41979981 129.77600098-129.77600098V219.90100097C479.53540039 148.5447998 421.11560058 90.125 349.75939941 90.125z m454.33959962 0H674.24060059c-71.35620117 0-129.77600098 58.41979981-129.77600098 129.77600098V349.67700195c0 71.35620117 58.41979981 129.77600098 129.77600098 129.77600098h129.77600097c71.35620117 0 129.77600098-58.41979981 129.77600098-129.77600098V219.90100097C933.875 148.5447998 875.4552002 90.125 804.09899903 90.125zM349.75939941 544.46459961H219.90100097C148.5447998 544.46459961 90.125 602.88439942 90.125 674.24060059v129.77600097C90.125 875.4552002 148.5447998 933.875 219.90100097 933.875H349.67700195c71.35620117 0 129.77600098-58.41979981 129.77600098-129.77600098V674.24060059c0.08239747-71.35620117-58.33740234-129.77600098-129.69360352-129.77600098z m454.33959962 0H674.24060059c-71.35620117 0-129.77600098 58.41979981-129.77600098 129.77600098v129.77600097c0 71.35620117 58.41979981 129.77600098 129.77600098 129.77600098h129.77600097c71.35620117 0 129.77600098-58.41979981 129.77600098-129.77600098V674.24060059c0.08239747-71.35620117-58.33740234-129.77600098-129.69360352-129.77600098z" fill="#dbdbdb" p-id="6097"></path></svg>