<?xml version="1.0" standalone="no"?><!DOCTYPE svg PUBLIC "-//W3C//DTD SVG 1.1//EN" "http://www.w3.org/Graphics/SVG/1.1/DTD/svg11.dtd"><svg t="1581336463193" class="icon" viewBox="0 0 1024 1024" version="1.1" xmlns="http://www.w3.org/2000/svg" p-id="5742" xmlns:xlink="http://www.w3.org/1999/xlink" width="200" height="200"><defs><style type="text/css"></style></defs><path d="M512 1024C229.23 1024 0 794.77 0 512S229.23 0 512 0s512 229.23 512 512-229.23 512-512 512z m0-51.2c254.49 0 460.8-206.31 460.8-460.8S766.49 51.2 512 51.2 51.2 257.51 51.2 512 257.51 972.8 512 972.8z" fill="#d81e06" p-id="5743"></path><path d="M512 512m-409.6 0a409.6 409.6 0 1 0 819.2 0 409.6 409.6 0 1 0-819.2 0Z" fill="#d81e06" p-id="5744"></path></svg>